# xmcd
#
# Track frame offsets:
#       150
#       23267
#       36712
#       60075
#       78172
#       95580
#       114872
#       132760
#       150655
#       164547
#       174232
#       194675
#       209415
#       229222
#       245045
#       256425
#       269645
#       286637
#       301542
#
# Disc length: 4240 seconds
#
# Revision: 0
# Processed by: cddbd v1.4PL0 Copyright (c) Steve Scherf et al.
# Submitted via: WhereIsIt 3.25
#
DISCID=f9108e13
DTITLE=John Denver - Sing Australia
DYEAR=1900
DGENRE=
TTITLE0=Sweet Surrender
TTITLE1=Take Me Home, Country Roads
TTITLE2=Back Home Again
TTITLE3=Leaving On A Jet Plane
TTITLE4=Wild Montana Skies
TTITLE5=Rocky Mountain High
TTITLE6=Fly Away
TTITLE7=Sing Australia
TTITLE8=Annie's Song
TTITLE9=Grandma's Feather Bed
TTITLE10=For You
TTITLE11=I'm Sorry
TTITLE12=Poems, Prayers and Promises
TTITLE13=Is It Love?
TTITLE14=In A Far Away Land
TTITLE15=Rhymes and Reasons
TTITLE16=Calypso
TTITLE17=This Old Guitar
TTITLE18=Whispering Jesse
EXTD=
EXTT0=
EXTT1=
EXTT2=
EXTT3=
EXTT4=
EXTT5=
EXTT6=
EXTT7=
EXTT8=
EXTT9=
EXTT10=
EXTT11=
EXTT12=
EXTT13=
EXTT14=
EXTT15=
EXTT16=
EXTT17=
EXTT18=
PLAYORDER=
